<svg width="900" height="387" viewBox="0 0 900 387" class="keymap" xmlns="http://www.w3.org/2000/svg" xmlns:xlink="http://www.w3.org/1999/xlink">
<defs>/* start glyphs */
<svg id="moon">
<svg xmlns="http://www.w3.org/2000/svg" fill="#290066" viewBox="0 0 24 24">
  <path d="M2 12A10 10 0 0 0 15 21.54A10 10 0 0 1 15 2.46A10 10 0 0 0 2 12Z" />
</svg>

</svg>
<svg id="moon-yellow">
<svg xmlns="http://www.w3.org/2000/svg" fill="#e4e736" viewBox="0 0 24 24">
  <path d="M2 12A10 10 0 0 0 15 21.54A10 10 0 0 1 15 2.46A10 10 0 0 0 2 12Z" />
</svg>

</svg>
<svg id="planet">
<svg xmlns="http://www.w3.org/2000/svg" fill="#290066" viewBox="0 -960 960 960">
  <path d="M449-539q21 0 35.5-14.5T499-589q0-21-14.5-35.5T449-639q-21 0-35.5 14.5T399-589q0 21 14.5 35.5T449-539ZM822-80q-42 0-113-35t-152-95q-19 5-38.5 7.5T479-200q-117 0-198-81t-81-198q0-20 3-40t8-39q-59-81-94.5-151.5T81-822q0-27 15-42.5t41-15.5q26 0 67.5 18T319-801q-21 11-39 23t-35 26q-19-11-37-19t-38-17q18 38 38.5 74t43.5 71q38-54 97-85t130-31q117 0 198.5 81.5T759-479q0 71-31.5 130T642-252q35 23 71.5 44t74.5 38q-8-19-16.5-37T752-244q15-17 27-36t22-39q46 78 62.5 116.5T880-138q0 29-16 43.5T822-80ZM549-359q17 0 28.5-11.5T589-399q0-17-11.5-28.5T549-439q-17 0-28.5 11.5T509-399q0 17 11.5 28.5T549-359Zm50-140q13 0 21.5-8.5T629-529q0-13-8.5-21.5T599-559q-13 0-21.5 8.5T569-529q0 13 8.5 21.5T599-499ZM468-281q-51-44-98-91t-90-98q2 38 17 71.5t41 59.5q26 26 59 41t71 17Zm103-21q48-25 78-72.5T679-480q0-83-58.5-141T479-679q-58 0-105 30t-72 78q57 76 125 144t144 125Zm-197-73Zm117-116Z"/>
</svg>

</svg>
<svg id="planet-yellow">
<svg xmlns="http://www.w3.org/2000/svg" fill="#e4e736" viewBox="0 -960 960 960">
  <path d="M449-539q21 0 35.5-14.5T499-589q0-21-14.5-35.5T449-639q-21 0-35.5 14.5T399-589q0 21 14.5 35.5T449-539ZM822-80q-42 0-113-35t-152-95q-19 5-38.5 7.5T479-200q-117 0-198-81t-81-198q0-20 3-40t8-39q-59-81-94.5-151.5T81-822q0-27 15-42.5t41-15.5q26 0 67.5 18T319-801q-21 11-39 23t-35 26q-19-11-37-19t-38-17q18 38 38.5 74t43.5 71q38-54 97-85t130-31q117 0 198.5 81.5T759-479q0 71-31.5 130T642-252q35 23 71.5 44t74.5 38q-8-19-16.5-37T752-244q15-17 27-36t22-39q46 78 62.5 116.5T880-138q0 29-16 43.5T822-80ZM549-359q17 0 28.5-11.5T589-399q0-17-11.5-28.5T549-439q-17 0-28.5 11.5T509-399q0 17 11.5 28.5T549-359Zm50-140q13 0 21.5-8.5T629-529q0-13-8.5-21.5T599-559q-13 0-21.5 8.5T569-529q0 13 8.5 21.5T599-499ZM468-281q-51-44-98-91t-90-98q2 38 17 71.5t41 59.5q26 26 59 41t71 17Zm103-21q48-25 78-72.5T679-480q0-83-58.5-141T479-679q-58 0-105 30t-72 78q57 76 125 144t144 125Zm-197-73Zm117-116Z"/>
</svg>

</svg>
<svg id="star">
<svg xmlns="http://www.w3.org/2000/svg" fill="#290066" viewBox="0 0 24 24">
  <path d="M12,17.27L18.18,21L16.54,13.97L22,9.24L14.81,8.62L12,2L9.19,8.62L2,9.24L7.45,13.97L5.82,21L12,17.27Z" />
</svg>

</svg>
<svg id="stars">
<svg xmlns="http://www.w3.org/2000/svg" fill="#290066" viewBox="0 0 24 24">
  <path d="M19,1L17.74,3.75L15,5L17.74,6.26L19,9L20.25,6.26L23,5L20.25,3.75M9,4L6.5,9.5L1,12L6.5,14.5L9,20L11.5,14.5L17,12L11.5,9.5M19,15L17.74,17.74L15,19L17.74,20.25L19,23L20.25,20.25L23,19L20.25,17.74" />
</svg>

</svg>
<svg id="waves">
<svg xmlns="http://www.w3.org/2000/svg" fill="#B87E9F" viewBox="0 -960 960 960">
  <path d="M750-614q-27 27-62 41t-70 14q-35 0-69-13.5T488-614l-75-75q-15-15-34-22.5t-39-7.5q-20 0-39 7.5T267-689l-75 75-57-57 75-75q27-27 61-40.5t69-13.5q35 0 68.5 13.5T469-746l75 75q16 16 35 23.5t39 7.5q20 0 39.5-7.5T693-671l75-75 57 57-75 75Zm0 200q-27 27-61.5 40.5T619-360q-35 0-69.5-13.5T488-414l-75-75q-15-15-34-22.5t-39-7.5q-20 0-39 7.5T267-489l-75 75-57-56 75-76q27-27 61-40.5t69-13.5q35 0 68.5 13.5T469-546l75 75q16 16 35 23.5t39 7.5q20 0 39.5-7.5T693-471l75-75 57 57-75 75Z" />
</svg>

</svg>
</defs>/* end glyphs */
<style>/* inherit to force styles through use tags */
svg path {
    fill: inherit;
}

/* font and background color specifications */
svg.keymap {
    font-family: SFMono-Regular,Consolas,Liberation Mono,Menlo,monospace;
    font-size: 14px;
    font-kerning: normal;
    text-rendering: optimizeLegibility;
    fill: #24292e;
}

/* default key styling */
rect.key {
    fill: #f6f8fa;
}

rect.key, rect.combo {
    stroke: #c9cccf;
    stroke-width: 1;
}

/* default key side styling, only used is draw_key_sides is set */
rect.side {
    filter: brightness(90%);
}

/* color accent for combo boxes */
rect.combo, rect.combo-separate {
    fill: #cdf;
}

/* color accent for held keys */
rect.held, rect.combo.held {
    fill: #fdd;
}

/* color accent for ghost (optional) keys */
rect.ghost, rect.combo.ghost {
    stroke-dasharray: 4, 4;
    stroke-width: 2;
}

text {
    text-anchor: middle;
    dominant-baseline: middle;
}

/* styling for layer labels */
text.label {
    font-weight: bold;
    text-anchor: start;
    stroke: white;
    stroke-width: 4;
    paint-order: stroke;
}

/* styling for optional footer */
text.footer {
    text-anchor: end;
    dominant-baseline: auto;
    stroke: white;
    stroke-width: 4;
    paint-order: stroke;
}

/* styling for combo tap, and key hold/shifted label text */
text.combo, text.hold, text.shifted {
    font-size: 11px;
}

text.hold {
    text-anchor: middle;
    dominant-baseline: auto;
}

text.shifted {
    text-anchor: middle;
    dominant-baseline: hanging;
}

text.layer-activator {
    text-decoration: underline;
}

/* styling for hold/shifted label text in combo box */
text.combo.hold, text.combo.shifted {
    font-size: 8px;
}

/* lighter symbol for transparent keys */
text.trans {
    fill: #7b7e81;
}

/* styling for combo dendrons */
path.combo {
    stroke-width: 1;
    stroke: gray;
    fill: none;
}

/* Start Tabler Icons Cleanup */
/* cannot use height/width with glyphs */
.icon-tabler > path {
    fill: inherit;
    stroke: inherit;
    stroke-width: 2;
}
/* hide tabler's default box */
.icon-tabler > path[stroke="none"][fill="none"] {
    visibility: hidden;
}
/* End Tabler Icons Cleanup */
</style>
<g transform="translate(30, 0)" class="layer-Visual">
<text x="0" y="28" class="label" id="Visual">Visual:</text>
<g transform="translate(0, 56)">
<g transform="translate(28, 49)" class="key keypos-0">
<rect rx="6" ry="6" x="-26" y="-26" width="52" height="52" class="key"/>
<use href="#stars" xlink:href="#stars" x="-12" y="-12" height="24" width="24.0" class="key tap glyph stars"/>
</g>
<g transform="translate(84, 49)" class="key keypos-1">
<rect rx="6" ry="6" x="-26" y="-26" width="52" height="52" class="key"/>
<text x="0" y="0" class="key tap">Q</text>
</g>
<g transform="translate(140, 35)" class="key keypos-2">
<rect rx="6" ry="6" x="-26" y="-26" width="52" height="52" class="key"/>
<text x="0" y="0" class="key tap">W</text>
</g>
<g transform="translate(196, 28)" class="key keypos-3">
<rect rx="6" ry="6" x="-26" y="-26" width="52" height="52" class="key"/>
<text x="0" y="0" class="key tap">E</text>
</g>
<g transform="translate(252, 35)" class="key keypos-4">
<rect rx="6" ry="6" x="-26" y="-26" width="52" height="52" class="key"/>
<text x="0" y="0" class="key tap">R</text>
</g>
<g transform="translate(308, 42)" class="key keypos-5">
<rect rx="6" ry="6" x="-26" y="-26" width="52" height="52" class="key"/>
<text x="0" y="0" class="key tap">T</text>
</g>
<g transform="translate(532, 42)" class="key keypos-6">
<rect rx="6" ry="6" x="-26" y="-26" width="52" height="52" class="key"/>
<text x="0" y="0" class="key tap">Y</text>
</g>
<g transform="translate(588, 35)" class="key keypos-7">
<rect rx="6" ry="6" x="-26" y="-26" width="52" height="52" class="key"/>
<text x="0" y="0" class="key tap">U</text>
</g>
<g transform="translate(644, 28)" class="key keypos-8">
<rect rx="6" ry="6" x="-26" y="-26" width="52" height="52" class="key"/>
<text x="0" y="0" class="key tap">I</text>
</g>
<g transform="translate(700, 35)" class="key keypos-9">
<rect rx="6" ry="6" x="-26" y="-26" width="52" height="52" class="key"/>
<text x="0" y="0" class="key tap">O</text>
</g>
<g transform="translate(756, 49)" class="key keypos-10">
<rect rx="6" ry="6" x="-26" y="-26" width="52" height="52" class="key"/>
<text x="0" y="0" class="key tap">P</text>
</g>
<g transform="translate(812, 49)" class="key keypos-11">
<rect rx="6" ry="6" x="-26" y="-26" width="52" height="52" class="key"/>
<use href="#stars" xlink:href="#stars" x="-12" y="-12" height="24" width="24.0" class="key tap glyph stars"/>
</g>
<g transform="translate(28, 105)" class="key keypos-12">
<rect rx="6" ry="6" x="-26" y="-26" width="52" height="52" class="key"/>
<use href="#star" xlink:href="#star" x="-12" y="-12" height="24" width="24.0" class="key tap glyph star"/>
</g>
<g transform="translate(84, 105)" class="key keypos-13">
<rect rx="6" ry="6" x="-26" y="-26" width="52" height="52" class="key"/>
<text x="0" y="0" class="key tap">A</text>
</g>
<g transform="translate(140, 91)" class="key keypos-14">
<rect rx="6" ry="6" x="-26" y="-26" width="52" height="52" class="key"/>
<text x="0" y="0" class="key tap">S</text>
</g>
<g transform="translate(196, 84)" class="key keypos-15">
<rect rx="6" ry="6" x="-26" y="-26" width="52" height="52" class="key"/>
<text x="0" y="0" class="key tap">D</text>
</g>
<g transform="translate(252, 91)" class="key keypos-16">
<rect rx="6" ry="6" x="-26" y="-26" width="52" height="52" class="key"/>
<text x="0" y="0" class="key tap">F</text>
</g>
<g transform="translate(308, 98)" class="key keypos-17">
<rect rx="6" ry="6" x="-26" y="-26" width="52" height="52" class="key"/>
<text x="0" y="0" class="key tap">G</text>
</g>
<g transform="translate(532, 98)" class="key keypos-18">
<rect rx="6" ry="6" x="-26" y="-26" width="52" height="52" class="key"/>
<text x="0" y="0" class="key tap">H</text>
</g>
<g transform="translate(588, 91)" class="key keypos-19">
<rect rx="6" ry="6" x="-26" y="-26" width="52" height="52" class="key"/>
<text x="0" y="0" class="key tap">J</text>
</g>
<g transform="translate(644, 84)" class="key keypos-20">
<rect rx="6" ry="6" x="-26" y="-26" width="52" height="52" class="key"/>
<text x="0" y="0" class="key tap">K</text>
</g>
<g transform="translate(700, 91)" class="key keypos-21">
<rect rx="6" ry="6" x="-26" y="-26" width="52" height="52" class="key"/>
<text x="0" y="0" class="key tap">L</text>
</g>
<g transform="translate(756, 105)" class="key keypos-22">
<rect rx="6" ry="6" x="-26" y="-26" width="52" height="52" class="key"/>
<text x="0" y="0" class="key tap">;</text>
<text x="0" y="-24" class="key shifted">:</text>
</g>
<g transform="translate(812, 105)" class="key keypos-23">
<rect rx="6" ry="6" x="-26" y="-26" width="52" height="52" class="key"/>
<text x="0" y="0" class="key tap">&#x27;</text>
<text x="0" y="-24" class="key shifted">&quot;</text>
</g>
<g transform="translate(28, 161)" class="key keypos-24">
<rect rx="6" ry="6" x="-26" y="-26" width="52" height="52" class="key"/>
<use href="#waves" xlink:href="#waves" x="-12" y="-12" height="24" width="24.0" class="key tap glyph waves"/>
</g>
<g transform="translate(84, 161)" class="key keypos-25">
<rect rx="6" ry="6" x="-26" y="-26" width="52" height="52" class="key"/>
<text x="0" y="0" class="key tap">Z</text>
</g>
<g transform="translate(140, 147)" class="key keypos-26">
<rect rx="6" ry="6" x="-26" y="-26" width="52" height="52" class="key"/>
<text x="0" y="0" class="key tap">X</text>
</g>
<g transform="translate(196, 140)" class="key keypos-27">
<rect rx="6" ry="6" x="-26" y="-26" width="52" height="52" class="key"/>
<text x="0" y="0" class="key tap">C</text>
</g>
<g transform="translate(252, 147)" class="key keypos-28">
<rect rx="6" ry="6" x="-26" y="-26" width="52" height="52" class="key"/>
<text x="0" y="0" class="key tap">V</text>
</g>
<g transform="translate(308, 154)" class="key keypos-29">
<rect rx="6" ry="6" x="-26" y="-26" width="52" height="52" class="key"/>
<text x="0" y="0" class="key tap">B</text>
</g>
<g transform="translate(532, 154)" class="key keypos-30">
<rect rx="6" ry="6" x="-26" y="-26" width="52" height="52" class="key"/>
<text x="0" y="0" class="key tap">N</text>
</g>
<g transform="translate(588, 147)" class="key keypos-31">
<rect rx="6" ry="6" x="-26" y="-26" width="52" height="52" class="key"/>
<text x="0" y="0" class="key tap">M</text>
</g>
<g transform="translate(644, 140)" class="key keypos-32">
<rect rx="6" ry="6" x="-26" y="-26" width="52" height="52" class="key"/>
<text x="0" y="0" class="key tap">,</text>
<text x="0" y="-24" class="key shifted">&lt;</text>
</g>
<g transform="translate(700, 147)" class="key keypos-33">
<rect rx="6" ry="6" x="-26" y="-26" width="52" height="52" class="key"/>
<text x="0" y="0" class="key tap">.</text>
<text x="0" y="-24" class="key shifted">&gt;</text>
</g>
<g transform="translate(756, 161)" class="key keypos-34">
<rect rx="6" ry="6" x="-26" y="-26" width="52" height="52" class="key"/>
<text x="0" y="0" class="key tap">/</text>
<text x="0" y="-24" class="key shifted">?</text>
</g>
<g transform="translate(812, 161)" class="key keypos-35">
<rect rx="6" ry="6" x="-26" y="-26" width="52" height="52" class="key"/>
<text x="0" y="0" class="key tap">[</text>
<text x="0" y="-24" class="key shifted">{</text>
</g>
<g transform="translate(224, 205)" class="key keypos-36">
<rect rx="6" ry="6" x="-26" y="-26" width="52" height="52" class="key"/>
<use href="#planet-yellow" xlink:href="#planet-yellow" x="-12" y="-12" height="24" width="24.0" class="key tap glyph planet-yellow"/>
</g>
<g transform="translate(286, 213) rotate(15.0)" class="key keypos-37">
<rect rx="6" ry="6" x="-26" y="-26" width="52" height="52" class="key"/>
<use href="#moon" xlink:href="#moon" x="-12" y="-12" height="24" width="24.0" class="key tap glyph moon"/>
</g>
<g transform="translate(351, 224) rotate(30.0)" class="key keypos-38">
<rect rx="6" ry="6" x="-26" y="-40" width="52" height="80" class="key"/>
<use href="#star" xlink:href="#star" x="-12" y="-12" height="24" width="24.0" class="key tap glyph star"/>
</g>
<g transform="translate(489, 224) rotate(-30.0)" class="key keypos-39">
<rect rx="6" ry="6" x="-26" y="-40" width="52" height="80" class="key"/>
<use href="#stars" xlink:href="#stars" x="-12" y="-12" height="24" width="24.0" class="key tap glyph stars"/>
</g>
<g transform="translate(554, 213) rotate(-15.0)" class="key keypos-40">
<rect rx="6" ry="6" x="-26" y="-26" width="52" height="52" class="key"/>
<use href="#moon-yellow" xlink:href="#moon-yellow" x="-12" y="-12" height="24" width="24.0" class="key tap glyph moon-yellow"/>
</g>
<g transform="translate(616, 205)" class="key keypos-41">
<rect rx="6" ry="6" x="-26" y="-26" width="52" height="52" class="key"/>
<use href="#planet" xlink:href="#planet" x="-12" y="-12" height="24" width="24.0" class="key tap glyph planet"/>
</g>
</g>
</g>
</svg>
